<?xml version="1.0" standalone="no"?>
<!DOCTYPE svg PUBLIC "-//W3C//DTD SVG 20010904//EN"
 "http://www.w3.org/TR/2001/REC-SVG-20010904/DTD/svg10.dtd">
<svg version="1.0" xmlns="http://www.w3.org/2000/svg"
 width="130.000000pt" height="45.000000pt" viewBox="0 0 130.000000 45.000000"
 preserveAspectRatio="xMidYMid meet">

<g transform="translate(0.000000,45.000000) scale(0.100000,-0.100000)"
fill="#000000" stroke="none">
<path d="M0 225 l0 -225 650 0 650 0 0 225 0 225 -650 0 -650 0 0 -225z m1214
139 c9 -23 7 -267 -2 -282 -7 -9 -64 -12 -253 -10 l-244 3 -3 140 c-1 76 0
145 2 152 4 10 59 13 250 13 213 0 245 -2 250 -16z m-999 -38 c21 -15 25 -67
5 -90 -8 -10 -29 -16 -56 -16 l-44 0 0 -40 c0 -33 -3 -40 -20 -40 -19 0 -20 7
-20 100 l0 100 58 0 c33 0 66 -6 77 -14z m138 -45 c35 -14 53 -62 35 -98 -41
-85 -174 -29 -137 59 17 42 55 56 102 39z m150 -3 c-2 -5 -3 -12 -3 -18 0 -5
-8 -10 -19 -10 -19 0 -31 -34 -31 -87 0 -18 -5 -24 -17 -21 -14 3 -19 15 -21
62 -2 32 -1 65 2 72 5 13 93 15 89 2z m152 -11 c9 -13 15 -43 15 -74 0 -46 -3
-53 -20 -53 -17 0 -20 7 -20 48 0 59 -13 81 -37 66 -13 -8 -19 -26 -21 -63 -3
-43 -6 -51 -23 -51 -17 0 -19 7 -19 68 0 38 2 71 4 73 2 2 27 5 55 6 42 2 53
-2 66 -20z"/>
<path d="M750 235 c0 -88 1 -95 20 -95 17 0 20 7 20 44 0 44 19 74 40 61 5 -3
10 -28 10 -56 0 -42 3 -49 20 -49 18 0 20 7 20 59 0 67 -14 86 -60 79 -27 -4
-30 -2 -30 24 0 21 -5 28 -20 28 -19 0 -20 -7 -20 -95z"/>
<path d="M1050 236 l0 -93 47 -7 c39 -5 50 -3 70 16 49 46 15 135 -48 126 -26
-4 -29 -2 -29 24 0 21 -5 28 -20 28 -19 0 -20 -7 -20 -94z m90 -6 c16 -30 3
-62 -23 -58 -25 3 -35 41 -17 64 17 19 27 18 40 -6z"/>
<path d="M900 215 c0 -76 13 -88 84 -79 l46 7 0 68 c0 62 -2 69 -19 69 -17 0
-20 -8 -23 -52 -3 -46 -6 -53 -25 -56 -22 -3 -23 0 -23 52 0 49 -2 56 -20 56
-18 0 -20 -7 -20 -65z"/>
<path d="M127 304 c-4 -4 -7 -18 -7 -31 0 -21 4 -24 33 -21 24 2 33 8 35 26 2
14 -2 22 -11 22 -9 0 -22 2 -29 5 -8 3 -17 2 -21 -1z"/>
<path d="M304 252 c-32 -22 -20 -82 17 -82 21 0 40 35 31 60 -5 14 -22 30 -32
30 -3 0 -10 -4 -16 -8z"/>
</g>
</svg>
